Coordinates
version=1
nRows=5
nColumns=63
inDegrees=yes

Units are S.I. units (second, meters, Newtons, ...)
If the header above contains a line with 'inDegrees', this indicates whether rotational values are in degrees (yes) or radians (no).

endheader
time	pelvis_tilt	pelvis_list	pelvis_rotation	pelvis_tx	pelvis_ty	pelvis_tz	hip_flexion_r	hip_adduction_r	hip_rotation_r	knee_angle_r	knee_angle_r_beta	ankle_angle_r	subtalar_angle_r	mtp_angle_r	hip_flexion_l	hip_adduction_l	hip_rotation_l	knee_angle_l	knee_angle_l_beta	ankle_angle_l	subtalar_angle_l	mtp_angle_l	L5_S1_Flex_Ext	L5_S1_Lat_Bending	L5_S1_axial_rotation	L4_L5_Flex_Ext	L4_L5_Lat_Bending	L4_L5_axial_rotation	L3_L4_Flex_Ext	L3_L4_Lat_Bending	L3_L4_axial_rotation	L2_L3_Flex_Ext	L2_L3_Lat_Bending	L2_L3_axial_rotation	L1_L2_Flex_Ext	L1_L2_Lat_Bending	L1_L2_axial_rotation	L1_T12_Flex_Ext	L1_T12_Lat_Bending	L1_T12_axial_rotation	Abs_r3	Abs_r2	Abs_r1	Abs_t1	Abs_t2	neck_flexion	neck_bending	neck_rotation	arm_flex_r	arm_add_r	arm_rot_r	elbow_flex_r	pro_sup_r	wrist_flex_r	wrist_dev_r	arm_flex_l	arm_add_l	arm_rot_l	elbow_flex_l	pro_sup_l	wrist_flex_l	wrist_dev_l
      9.30232558	      1.17421551	      2.23845622	    100.72489911	      0.15521297	      0.97314680	      0.50937982	      4.88675140	      0.20510916	    -21.35388456	     16.29858054	      0.28446389	     34.31687925	     14.62575872	      0.00000000	      3.04236341	     -1.80778245	     -0.90580389	      9.29144801	      0.16216636	     33.20637714	      8.42875367	      0.00000000	      0.21808160	      0.31488622	      2.49924933	      0.40499934	      0.41879867	      2.65545242	      0.35828626	      0.76561434	      2.65545242	      0.24924546	      0.76561434	      2.18684317	      0.20251057	      0.64211597	      2.03064008	      0.12461183	      0.48775875	      1.87443700	      1.55773506	      3.56205584	     13.90007501	      0.00000000	      0.00000000	     19.95337760	     -9.13994812	      4.66045409	     67.82505922	     -8.71934468	    420.12992550	     48.52319589	     28.12005643	      6.89965560	      5.27963539	     46.64513037	     -3.89970517	     15.84318027	     64.75626106	     85.94848555	     -7.67876662	     25.96210460
      9.32558140	      0.95750995	      1.85149758	    100.42061570	      0.15694069	      0.97241932	      0.51012629	      5.47015351	     -0.06313483	    -21.12195120	     16.57609987	      0.28930752	     34.70650205	     14.70918697	      0.00000000	      3.37805836	     -1.58775925	     -1.07178349	      9.19802712	      0.16053586	     33.01522816	      8.23405291	      0.00000000	      0.24338127	      0.24510397	      2.59944883	      0.45198335	      0.32598828	      2.76191438	      0.39985108	      0.59594579	      2.76191438	      0.27816045	      0.59594579	      2.27451772	      0.22600384	      0.49981602	      2.11205217	      0.13906805	      0.37966605	      1.94958662	      1.73844804	      2.77266513	     14.45735455	      0.00000000	      0.00000000	     20.72121762	     -7.80410772	      4.67940838	     69.57747786	     -9.33640015	    420.44165111	     47.73166807	     26.97171359	      7.51112027	      5.39585559	     47.75322474	     -5.26229930	     17.50465613	     65.67883811	     86.48008130	     -6.31133079	     26.17302146
      9.34883721	      0.79005588	      1.63888846	    100.13504278	      0.15819623	      0.97203659	      0.51127666	      5.92077885	     -0.26423635	    -20.76211810	     16.88399619	      0.29468132	     35.01328229	     14.54832725	      0.00000000	      3.54953663	     -1.42016995	     -1.08402477	      9.11880489	      0.15915317	     32.74569031	      8.01339920	      0.00000000	      0.25463544	      0.18963814	      2.66941508	      0.47288348	      0.25221873	      2.83625352	      0.41834056	      0.46108618	      2.83625352	      0.29102284	      0.46108618	      2.33573820	      0.23645447	      0.38671010	      2.16889975	      0.14549869	      0.29374948	      2.00206131	      1.81883549	      2.14522460	     14.84648586	      0.00000000	      0.00000000	     20.98729182	     -6.61127635	      4.06245170	     71.83774631	    -10.24609905	    422.72583623	     47.88522456	     27.77136219	      7.61535537	      4.49640062	     48.36000702	     -7.12303167	     18.61790182	     67.41911554	     86.89867065	     -4.52191755	     24.33792600
      9.37209302	      0.67503869	      1.52226616	     99.90557037	      0.15931633	      0.97194220	      0.51234204	      6.21215554	     -0.34617389	    -20.25450141	     17.05676922	      0.29769678	     35.17259810	     14.21287871	      0.00000000	      3.58956870	     -1.27100372	     -0.37365231	      8.96058849	      0.15639177	     32.26248310	      6.90992524	      0.00000000	      0.26257624	      0.14136924	      2.73422318	      0.48763033	      0.18802109	      2.90511213	      0.43138650	      0.34372518	      2.90511213	      0.30009838	      0.34372518	      2.39244528	      0.24382830	      0.28828016	      2.22155633	      0.15003606	      0.21898096	      2.05066738	      1.87555582	      1.59919715	     15.20692905	      0.00000000	      0.00000000	     20.93742985	     -5.70589176	      3.16479627	     74.17937605	    -11.50840403	    423.64105774	     47.58496048	     59.41410590	      7.33409411	     -1.34675361	     48.88777199	     -9.37327974	     20.08281544	     68.90038874	     87.48059550	     -3.58644876	     18.52834379
      9.39534884	      0.50316808	      1.49030310	     99.66039237	      0.16022673	      0.97200160	      0.51342925	      6.45294964	     -0.49159446	    -19.62841355	     17.33140090	      0.30249001	     35.33701331	     13.85787658	      0.00000000	      3.56065518	     -1.09826429	     -0.14904019	      8.85766390	      0.15459540	     31.82526641	      6.36602820	      0.00000000	      0.25704830	      0.09376064	      2.81761168	      0.47736439	      0.12470165	      2.99371241	      0.42230464	      0.22796962	      2.99371241	      0.29378050	      0.22796962	      2.46541022	      0.23869505	      0.19119670	      2.28930949	      0.14687740	      0.14523523	      2.11320876	      1.83607027	      1.06063910	     15.67071089	      0.00000000	      0.00000000	     20.57408511	     -5.11461083	      2.03823128	     77.03892484	    -13.01173647	    427.06620559	     47.85546058	     82.75895278	      4.37874518	     -3.53754165	     49.53080946	    -11.69962774	     22.48556543	     69.05802866	     87.89071103	     -5.97002168	      7.54824091
